<?xml version="1.0" encoding="UTF-8"?>
<svg version="1.1" xmlns="http://www.w3.org/2000/svg" width="101" height="44">
<path d="M0 0 C33.33 0 66.66 0 101 0 C101 14.52 101 29.04 101 44 C67.67 44 34.34 44 0 44 C0 29.48 0 14.96 0 0 Z " fill="#FBFBFB" transform="translate(0,0)"/>
<path d="M0 0 C0.66 0 1.32 0 2 0 C1.75238337 6.9332657 -0.1070273 11.04134981 -5 16 C-8.16573435 18.53954513 -10.74976687 20.10640282 -14.9375 19.75 C-15.618125 19.5025 -16.29875 19.255 -17 19 C-16.2575 18.4225 -15.515 17.845 -14.75 17.25 C-9.63288888 13.06327272 -7.5256029 10.61094588 -6 4 C-4.35 3.67 -2.7 3.34 -1 3 C-0.67 2.01 -0.34 1.02 0 0 Z " fill="#F9C7D5" transform="translate(38,12)"/>
<path d="M0 0 C2.31 0 4.62 0 7 0 C6.979375 1.093125 6.95875 2.18625 6.9375 3.3125 C6.81455548 6.94384191 6.81455548 6.94384191 8 10 C7.01 10 6.02 10 5 10 C4.67 8.68 4.34 7.36 4 6 C3.34 6 2.68 6 2 6 C2 7.32 2 8.64 2 10 C1.34 10 0.68 10 0 10 C0 6.7 0 3.4 0 0 Z " fill="#181818" transform="translate(46,17)"/>
<path d="M0 0 C0.66 0 1.32 0 2 0 C1.75451137 6.87368163 -0.09844958 11.09844958 -5 16 C-7.875 17.5 -7.875 17.5 -10 18 C-9.40251953 17.41605469 -9.40251953 17.41605469 -8.79296875 16.8203125 C-4.73314527 12.53329695 -2.967613 8.75490793 -1.54296875 3.0390625 C-1 1 -1 1 0 0 Z " fill="#ED4373" transform="translate(38,12)"/>
<path d="M0 0 C2.31 0 4.62 0 7 0 C7 2.64 7 5.28 7 8 C6.34 8 5.68 8 5 8 C5 6.02 5 4.04 5 2 C4.01 2 3.02 2 2 2 C2 3.98 2 5.96 2 8 C1.34 8 0.68 8 0 8 C0 5.36 0 2.72 0 0 Z " fill="#2B2B2B" transform="translate(59,19)"/>
<path d="M0 0 C0.99 0.33 1.98 0.66 3 1 C3 1.99 3 2.98 3 4 C3.66 4 4.32 4 5 4 C5 2.68 5 1.36 5 0 C5.66 0 6.32 0 7 0 C6.77139942 1.46184058 6.51629608 2.91955419 6.25 4.375 C6.04117188 5.59316406 6.04117188 5.59316406 5.828125 6.8359375 C5 9 5 9 2.921875 10.2890625 C1.97054687 10.64097656 1.97054687 10.64097656 1 11 C1 10.34 1 9.68 1 9 C1.66 9 2.32 9 3 9 C2.01 6.03 1.02 3.06 0 0 Z " fill="#232323" transform="translate(73,19)"/>
<path d="M0 0 C0.75 1.625 0.75 1.625 1 4 C-1.18507675 7.88458089 -3.74163303 10.97437353 -7 14 C-7.66 13.67 -8.32 13.34 -9 13 C-8.21625 12.319375 -7.4325 11.63875 -6.625 10.9375 C-3.69249662 7.65588908 -3.05177744 5.20710975 -2 1 C-1.34 0.67 -0.68 0.34 0 0 Z " fill="#EB2D62" transform="translate(34,15)"/>
<path d="M0 0 C0.66 0 1.32 0 2 0 C3.04005702 3.38018531 3.08004482 6.4780279 3 10 C2.01 10 1.02 10 0 10 C0 8.02 0 6.04 0 4 C-0.66 4 -1.32 4 -2 4 C-2 3.34 -2 2.68 -2 2 C-1.34 2 -0.68 2 0 2 C0 1.34 0 0.68 0 0 Z " fill="#272727" transform="translate(69,17)"/>
<path d="M0 0 C0.99 0 1.98 0 3 0 C3.99 2.97 4.98 5.94 6 9 C5.01 9 4.02 9 3 9 C2.67 7.35 2.34 5.7 2 4 C1.34 4 0.68 4 0 4 C0 2.68 0 1.36 0 0 Z " fill="#727372" transform="translate(48,18)"/>
<path d="M0 0 C0.33 0.99 0.66 1.98 1 3 C-1.45906075 6.87774964 -3.61740632 8.66087415 -8 10 C-7.59007813 9.52949219 -7.18015625 9.05898438 -6.7578125 8.57421875 C-6.21898438 7.95160156 -5.68015625 7.32898438 -5.125 6.6875 C-4.59132813 6.07261719 -4.05765625 5.45773438 -3.5078125 4.82421875 C-1.8359553 2.86501788 -1.8359553 2.86501788 0 0 Z " fill="#EB2E62" transform="translate(36,20)"/>
<path d="M0 0 C0.99 1.32 1.98 2.64 3 4 C2.34 5.32 1.68 6.64 1 8 C0.34 7.34 -0.32 6.68 -1 6 C-0.625 2.875 -0.625 2.875 0 0 Z " fill="#E7E7E7" transform="translate(72,19)"/>
<path d="M0 0 C1.32 1.65 2.64 3.3 4 5 C3.34 5 2.68 5 2 5 C2 6.32 2 7.64 2 9 C1.34 9 0.68 9 0 9 C0 6.03 0 3.06 0 0 Z " fill="#121212" transform="translate(46,18)"/>
</svg>
